{"title":"Channa Sachi Muchi ( 2010 ) Punjabi PDvD Rip Avc { XMR }@Mastito","uid":5891091,"size":1454930417,"categoryP":"video","categoryS":"movies","magnet":"?xt=urn:btih:f01d484f6a624bca0addc76ae83e5e504e845f02&amp;dn=Channa+Sachi+Muchi+%28+2010+%29+Punjabi+PDvD+Rip+Avc+%7B+XMR+%7D%40Mastito&amp;tr=udp%3A%2F%2Ftracker.openbittorrent.com%3A80&amp;tr=udp%3A%2F%2Fopen.demonii.com%3A1337&amp;tr=udp%3A%2F%2Ftracker.coppersurfer.tk%3A6969&amp;tr=udp%3A%2F%2Fexodus.desync.com%3A6969","seeders":0,"leechers":1,"uploader":"amanrulz","files":1,"time":1287253176,"description":"mastitorrents.com\n &lt;a href=&quot;\nhttp://mastitorrents.com/forums/index.php&quot; rel=&quot;nofollow&quot; target=&quot;_NEW&quot;&gt;\nhttp://mastitorrents.com/forums/index.php&lt;/a&gt;\n\nRipper : Rahul\nComplete name : Channa Sachi Muchi ( 2010 )\nFormat : Matroska\nFile size : 1.36 GiB\nDuration : 2h 24mn\nOverall bit rate : 1 345 Kbps\nMovie name : VIDEO_TS\nEncoded date : UTC 2010-10-15 19:10:59\n\nVideo\nID : 1\nFormat : AVC\nFormat/Info : Advanced Video Codec\nFormat profile : &lt;a class=&quot;__cf_email__&quot; href=&quot;/cdn-cgi/l/email-protection&quot; data-cfemail=&quot;753d1c121d3539415b45&quot;&gt;[email&amp;#160;protected]&lt;/a&gt;&lt;script cf-hash='f9e31' type=&quot;text/javascript&quot;&gt;\n/* &lt;![CDATA[ */!function(){try{var t=&quot;currentScript&quot;in document?document.currentScript:function(){for(var t=document.getElementsByTagName(&quot;script&quot;),e=t.length;e--;)if(t[e].getAttribute(&quot;cf-hash&quot;))return t[e]}();if(t&amp;&amp;t.previousSibling){var e,r,n,i,c=t.previousSibling,a=c.getAttribute(&quot;data-cfemail&quot;);if(a){for(e=&quot;&quot;,r=parseInt(a.substr(0,2),16),n=2;a.length-n;n+=2)i=parseInt(a.substr(n,2),16)^r,e+=String.fromCharCode(i);e=document.createTextNode(e),c.parentNode.replaceChild(e,c)}}}catch(u){}}();/* ]]&gt; */&lt;/script&gt;\nFormat settings, CABAC : Yes\nFormat settings, ReFrames : 3 frames\nMuxing mode : Container profile=&lt;a class=&quot;__cf_email__&quot; href=&quot;/cdn-cgi/l/email-protection&quot; data-cfemail=&quot;4c19222722233b220c78627c&quot;&gt;[email&amp;#160;protected]&lt;/a&gt;&lt;script cf-hash='f9e31' type=&quot;text/javascript&quot;&gt;\n/* &lt;![CDATA[ */!function(){try{var t=&quot;currentScript&quot;in document?document.currentScript:function(){for(var t=document.getElementsByTagName(&quot;script&quot;),e=t.length;e--;)if(t[e].getAttribute(&quot;cf-hash&quot;))return t[e]}();if(t&amp;&amp;t.previousSibling){var e,r,n,i,c=t.previousSibling,a=c.getAttribute(&quot;data-cfemail&quot;);if(a){for(e=&quot;&quot;,r=parseInt(a.substr(0,2),16),n=2;a.length-n;n+=2)i=parseInt(a.substr(n,2),16)^r,e+=String.fromCharCode(i);e=document.createTextNode(e),c.parentNode.replaceChild(e,c)}}}catch(u){}}();/* ]]&gt; */&lt;/script&gt;\nCodec ID : V_MPEG4/ISO/AVC\nDuration : 2h 24mn\nBit rate : 870 Kbps\nWidth : 720 pixels\nHeight : 298 pixels\nDisplay aspect ratio : 2.40:1\nFrame rate : 23.976 fps\nColor space : YUV\nChroma subsampling : 4:2:0\nBit depth : 8 bits\nScan type : Progressive\nBits/(Pixel*Frame) : 0.169\nStream size : 898 MiB (65%)\nWriting library : x264 core 105 r1732 2b04482\n\n\nAudio\nID : 2\nFormat : AC-3\nFormat/Info : Audio Coding 3\nMode extension : CM (complete main)\nCodec ID : A_AC3\nDuration : 2h 24mn\nBit rate mode : Constant\nBit rate : 448 Kbps\nChannel(s) : 6 channels\nChannel positions : Front: L C R, Side: L R, LFE\nSampling rate : 48.0 KHz\nBit depth : 16 bits\nStream size : 462 MiB (33%)\n\nCAST\n\nMiss Pooja\n\nGoldy Somal\n\nJas Prem Dhillon\n\nRana Ranbir\n\nProducer Iqbal Dhillon\n\nWriter &amp; Director\n\nHarinder Gill","torrent":{"xt":"urn:btih:f01d484f6a624bca0addc76ae83e5e504e845f02","amp;dn":"Channa+Sachi+Muchi+%28+2010+%29+Punjabi+PDvD+Rip+Avc+%7B+XMR+%7D%40Mastito","amp;tr":["udp%3A%2F%2Ftracker.openbittorrent.com%3A80","udp%3A%2F%2Fopen.demonii.com%3A1337","udp%3A%2F%2Ftracker.coppersurfer.tk%3A6969","udp%3A%2F%2Fexodus.desync.com%3A6969"],"infoHash":"f01d484f6a624bca0addc76ae83e5e504e845f02","infoHashBuffer":{"type":"Buffer","data":[240,29,72,79,106,98,75,202,10,221,199,106,232,62,94,80,78,132,95,2]},"announce":[],"urlList":[]}}